<svg width="114" height="26" viewBox="0 0 114 26" fill="none" xmlns="http://www.w3.org/2000/svg">
<g clip-path="url(#clip0_12_269)">
<path d="M24.2425 6.87444L5.20904 0.154596C3.06356 -0.602592 1.02144 1.55564 1.73584 3.82559L2.0862 4.93887L0 5.79412H2.35524L4.08272 11.2841L1.9874 12.1418H4.35176L6.0458 17.5233L3.95884 18.3802H6.31484L8.08792 24.0125C8.73316 26.063 11.1956 26.6755 12.638 25.1442L25.3179 11.6772C26.7558 10.15 26.1744 7.55687 24.2417 6.87444H24.2425Z" fill="#19A0E6"/>
<path d="M17.1814 9.57981H1.1864L0.0015564 5.79387H17.1814C18.1694 5.76895 18.9704 6.62179 18.9704 7.67478C18.9704 8.72697 18.1694 9.58061 17.1814 9.58061V9.57981Z" fill="#E6E6E6"/>
<path d="M10.1293 22.1666H5.13836L3.95352 18.3807H10.13C11.118 18.3558 11.9191 19.2086 11.9191 20.2616C11.9191 21.3138 11.118 22.1674 10.13 22.1674L10.1293 22.1666Z" fill="#E6E6E6"/>
<path d="M13.6215 15.9267H3.17224L1.9874 12.1407H13.6215C14.6095 12.1158 15.4105 12.9687 15.4105 14.0216C15.4105 15.0738 14.6095 15.9275 13.6215 15.9275V15.9267Z" fill="#E6E6E6"/>
<path d="M47.3655 18.3895C46.7278 18.3895 46.154 17.777 46.154 17.1083V6.61614C46.154 6.18369 46.4907 5.83243 46.9034 5.83243H47.6467C48.0601 5.83243 48.3352 6.1845 48.3352 6.61614V15.0192C48.3352 15.573 48.8262 16.0834 49.3559 16.0834H55.3622C55.7756 16.0834 56.1115 16.376 56.1115 16.8076V17.6058C56.1115 18.0383 55.7749 18.3895 55.3622 18.3895H47.3662H47.3655ZM61.3882 8.13856H65.6708C66.6664 8.13856 67.4766 9.04686 67.4766 10.0886V10.7011C67.4766 11.1062 67.1619 11.4695 66.7751 11.4695H60.4162C60.0293 11.4695 59.7147 11.1062 59.7147 10.7011V9.8563C59.7147 8.94237 60.4253 8.13775 61.2985 8.13775H61.3882V8.13856ZM68.2039 18.3911H68.9084C69.3211 18.3911 69.6578 18.0399 69.6578 17.6074V9.46966C69.6578 8.49947 69.2968 7.58795 68.6424 6.90069C67.9858 6.21183 67.1125 5.83323 66.1838 5.83323H61.0227C60.0962 5.83323 59.2237 6.20942 58.5671 6.89346C57.8679 7.62171 57.5419 8.58788 57.5419 9.93507V17.6484C57.5419 18.1066 57.8208 18.3807 58.2882 18.3831L58.9646 18.3871C59.3765 18.3871 59.7132 18.0359 59.7132 17.6034V14.475C59.7132 14.0699 60.0278 13.7781 60.4147 13.7781H66.7523C67.1391 13.7781 67.4751 14.0699 67.4751 14.475V17.6074C67.4751 18.0391 67.7517 18.3911 68.1644 18.3911H68.2016H68.2039ZM83.185 18.3887H83.9017C84.4983 18.3887 84.9231 17.8815 84.9231 17.2562V6.61614C84.9231 6.1845 84.61 5.83243 84.1966 5.83243H83.4921C83.0794 5.83243 82.7427 6.18369 82.7427 6.61614V13.5787C82.7427 13.8585 82.4699 14.0337 82.2578 14.0337C82.137 14.0337 81.9021 13.9734 81.8201 13.8761L75.2043 6.10412C75.0576 5.9313 74.8463 5.83243 74.6244 5.83243H73.8872C73.2913 5.83243 72.8057 6.33963 72.8057 6.965V17.6058C72.8057 18.0375 73.1409 18.3895 73.5551 18.3895H74.2619C74.6745 18.3895 75.0112 18.0383 75.0112 17.6058V10.6336C75.0112 10.3539 75.2658 10.1867 75.4771 10.1867C75.5979 10.1867 75.7104 10.2397 75.7925 10.337L82.4288 18.1194C82.577 18.2923 82.7875 18.3911 83.0087 18.3911H83.185V18.3887ZM33.3123 18.3863H43.225C43.6377 18.3863 43.9743 18.0351 43.9743 17.6026V16.8044C43.9743 16.3728 43.6544 16.0834 43.2409 16.0834H34.8414C34.5047 16.0834 34.2828 15.7329 34.2828 15.3809V13.9356C34.2828 13.5836 34.4895 13.2636 34.8262 13.2636H41.1821C41.5948 13.2636 41.9315 12.9453 41.9315 12.5121V11.7139C41.9315 11.2823 41.5963 10.9567 41.1821 10.9567H34.8262C34.4895 10.9567 34.2828 10.6424 34.2828 10.2904V8.83465C34.2828 8.48259 34.3831 8.13775 34.7198 8.13775H43.1209C43.5335 8.13775 43.855 7.84436 43.855 7.41191V6.61373C43.855 6.18209 43.5199 5.83002 43.1057 5.83002H33.2599C32.6207 5.83002 32.1016 6.37339 32.1016 7.04216V17.1758C32.1016 17.8445 32.4938 18.3879 33.1322 18.3879L33.3131 18.3863H33.3123ZM103.339 18.3863H113.251C113.664 18.3863 114.001 18.0351 114.001 17.6026V16.8044C114.001 16.3728 113.681 16.0834 113.267 16.0834H104.868C104.531 16.0834 104.309 15.7329 104.309 15.3809V13.9356C104.309 13.5836 104.516 13.2636 104.853 13.2636H111.208C111.621 13.2636 111.958 12.9453 111.958 12.5121V11.7139C111.958 11.2823 111.623 10.9567 111.208 10.9567H104.853C104.516 10.9567 104.309 10.6424 104.309 10.2904V8.83465C104.309 8.48259 104.41 8.13775 104.746 8.13775H113.147C113.56 8.13775 113.881 7.84436 113.881 7.41191V6.61373C113.881 6.18209 113.546 5.83002 113.132 5.83002H103.286C102.647 5.83002 102.128 6.37339 102.128 7.04216V17.1758C102.128 17.8445 102.52 18.3879 103.159 18.3879L103.339 18.3863H103.339ZM91.0677 18.3879H96.0693C96.9957 18.3879 97.8652 18.0117 98.521 17.3277L98.5241 17.3237C99.1792 16.6372 99.541 15.7249 99.541 14.7547V14.3986C99.541 14.3681 99.5379 14.3375 99.5288 14.3006L99.5273 14.2925V14.2732C99.5273 13.9404 99.0189 13.6583 98.4169 13.6583C97.815 13.6583 97.3066 13.9396 97.3066 14.2732V14.2853L97.3096 14.3102L97.3081 14.3207C97.3028 14.348 97.3005 14.3745 97.3005 14.4002C97.3005 15.2949 96.6043 16.0826 95.7493 16.0826H91.3208C90.4658 16.0826 89.7704 15.2941 89.7704 14.4002V9.82012C89.7704 8.92548 90.4217 8.13856 91.2767 8.13856H95.7068C96.5618 8.13856 97.302 8.92629 97.302 9.82012C97.302 9.84102 97.3035 9.86273 97.3089 9.89247V9.9005L97.3096 9.90854C97.3096 9.91337 97.3089 9.91739 97.3081 9.92703C97.3081 10.2598 97.8219 10.5419 98.4192 10.5419C99.0166 10.5419 99.525 10.263 99.5288 9.93185V9.92382L99.5303 9.91658C99.5387 9.88121 99.5425 9.84986 99.5425 9.82093V9.46484C99.5425 8.49464 99.1807 7.58152 98.5249 6.89587C97.8682 6.21022 96.9973 5.83243 96.0693 5.83243H91.0601C90.1329 5.83243 89.2605 6.21022 88.6046 6.89587C87.9495 7.58232 87.5877 8.49464 87.5877 9.46484V14.7515C87.5877 15.7185 87.9472 16.6284 88.5977 17.3132L88.6031 17.3189C89.2498 17.9981 90.1466 18.3887 91.0632 18.3887H91.0662L91.0677 18.3879Z" fill="#1A1D21"/>
</g>
<defs>
<clipPath id="clip0_12_269">
<rect width="114" height="26" fill="white"/>
</clipPath>
</defs>
</svg>
